<svg width="300" height="47" viewBox="0 0 300 47" fill="none" xmlns="http://www.w3.org/2000/svg">
<g clip-path="url(#clip0_36_210)">
<path d="M26.4104 0L34.8416 0.093551C21.1432 12.91 11.1673 22.4522 8.15215 25.4646C6.58015 26.9473 5.31513 28.7277 4.42978 30.7034C3.58346 32.5519 3.097 34.5461 2.99666 36.5784C0.946362 34.2781 -0.128899 31.2635 0.000153347 28.1775C0.490988 25.3058 2.01445 22.7156 4.28088 20.8993C9.69693 15.7353 17.1603 8.56927 26.4104 0Z" fill="#4680FE"/>
<path d="M39.5689 0L48.0001 0.093551L16.7507 30.1234C15.9566 30.797 15.1377 31.5641 14.294 32.4248C13.8659 32.8364 13.4937 33.2667 13.1214 33.6783C12.7647 33.9922 12.4814 34.3813 12.2915 34.8179C12.1017 35.2545 12.0101 35.7279 12.0233 36.2042C12.0582 36.5737 12.1725 36.9312 12.3583 37.252L13.8101 38.8611C16.2482 41.5553 18.705 44.2309 21.1431 46.9064L13.0284 47L9.80852 43.9502C7.52757 42.1311 6.01775 39.5101 5.58362 36.6158C5.13694 30.8718 10.9811 26.5872 17.3649 20.8993C22.6879 16.2217 30.3374 9.20541 39.5689 0Z" fill="#4680FE"/>
<path d="M19.226 31.4893L14.8149 35.9236L24.9956 47H33.9293L19.226 31.4893Z" fill="#4680FE"/>
<path d="M26.8008 24.5852L21.7012 29.7679L37.4282 46.7755H47.9811L26.8008 24.5852Z" fill="#4680FE"/>
</g>
<path d="M63.296 31.88L63.008 25.896L73.728 14.6H79.488L69.824 25L66.944 28.072L63.296 31.88ZM58.656 37V14.6H63.808V37H58.656ZM73.984 37L66.016 27.24L69.408 23.56L80.032 37H73.984ZM81.679 37V19.784H86.447V24.648L85.775 23.24C86.287 22.024 87.1083 21.1067 88.239 20.488C89.3697 19.848 90.7457 19.528 92.367 19.528V24.136C92.1537 24.1147 91.9617 24.104 91.791 24.104C91.6203 24.0827 91.439 24.072 91.247 24.072C89.8817 24.072 88.7723 24.4667 87.919 25.256C87.087 26.024 86.671 27.2293 86.671 28.872V37H81.679ZM103.402 37.256C101.568 37.256 99.9356 36.872 98.5063 36.104C97.0983 35.336 95.9783 34.2907 95.1463 32.968C94.3356 31.624 93.9303 30.0987 93.9303 28.392C93.9303 26.664 94.3356 25.1387 95.1463 23.816C95.9783 22.472 97.0983 21.4267 98.5063 20.68C99.9356 19.912 101.568 19.528 103.402 19.528C105.216 19.528 106.837 19.912 108.266 20.68C109.696 21.4267 110.816 22.4613 111.626 23.784C112.437 25.1067 112.842 26.6427 112.842 28.392C112.842 30.0987 112.437 31.624 111.626 32.968C110.816 34.2907 109.696 35.336 108.266 36.104C106.837 36.872 105.216 37.256 103.402 37.256ZM103.402 33.16C104.234 33.16 104.981 32.968 105.642 32.584C106.304 32.2 106.826 31.656 107.21 30.952C107.594 30.2267 107.786 29.3733 107.786 28.392C107.786 27.3893 107.594 26.536 107.21 25.832C106.826 25.128 106.304 24.584 105.642 24.2C104.981 23.816 104.234 23.624 103.402 23.624C102.57 23.624 101.824 23.816 101.162 24.2C100.501 24.584 99.9676 25.128 99.5623 25.832C99.1783 26.536 98.9863 27.3893 98.9863 28.392C98.9863 29.3733 99.1783 30.2267 99.5623 30.952C99.9676 31.656 100.501 32.2 101.162 32.584C101.824 32.968 102.57 33.16 103.402 33.16ZM126.643 19.528C128.008 19.528 129.224 19.8053 130.291 20.36C131.379 20.8933 132.232 21.7253 132.851 22.856C133.47 23.9653 133.779 25.3947 133.779 27.144V37H128.787V27.912C128.787 26.5253 128.478 25.5013 127.859 24.84C127.262 24.1787 126.408 23.848 125.299 23.848C124.51 23.848 123.795 24.0187 123.155 24.36C122.536 24.68 122.046 25.1813 121.683 25.864C121.342 26.5467 121.171 27.4213 121.171 28.488V37H116.179V19.784H120.947V24.552L120.051 23.112C120.67 21.96 121.555 21.0747 122.707 20.456C123.859 19.8373 125.171 19.528 126.643 19.528ZM146.621 37.256C144.786 37.256 143.154 36.872 141.725 36.104C140.317 35.336 139.197 34.2907 138.365 32.968C137.554 31.624 137.149 30.0987 137.149 28.392C137.149 26.664 137.554 25.1387 138.365 23.816C139.197 22.472 140.317 21.4267 141.725 20.68C143.154 19.912 144.786 19.528 146.621 19.528C148.434 19.528 150.056 19.912 151.485 20.68C152.914 21.4267 154.034 22.4613 154.845 23.784C155.656 25.1067 156.061 26.6427 156.061 28.392C156.061 30.0987 155.656 31.624 154.845 32.968C154.034 34.2907 152.914 35.336 151.485 36.104C150.056 36.872 148.434 37.256 146.621 37.256ZM146.621 33.16C147.453 33.16 148.2 32.968 148.861 32.584C149.522 32.2 150.045 31.656 150.429 30.952C150.813 30.2267 151.005 29.3733 151.005 28.392C151.005 27.3893 150.813 26.536 150.429 25.832C150.045 25.128 149.522 24.584 148.861 24.2C148.2 23.816 147.453 23.624 146.621 23.624C145.789 23.624 145.042 23.816 144.381 24.2C143.72 24.584 143.186 25.128 142.781 25.832C142.397 26.536 142.205 27.3893 142.205 28.392C142.205 29.3733 142.397 30.2267 142.781 30.952C143.186 31.656 143.72 32.2 144.381 32.584C145.042 32.968 145.789 33.16 146.621 33.16ZM173.612 24.68H184.364V28.84H173.612V24.68ZM173.996 37H168.812V14.6H185.74V18.76H173.996V37ZM188.898 37V19.784H193.89V37H188.898ZM191.394 17.384C190.476 17.384 189.73 17.1173 189.154 16.584C188.578 16.0507 188.29 15.3893 188.29 14.6C188.29 13.8107 188.578 13.1493 189.154 12.616C189.73 12.0827 190.476 11.816 191.394 11.816C192.311 11.816 193.058 12.072 193.634 12.584C194.21 13.0747 194.498 13.7147 194.498 14.504C194.498 15.336 194.21 16.0293 193.634 16.584C193.079 17.1173 192.332 17.384 191.394 17.384ZM208.987 19.528C210.352 19.528 211.568 19.8053 212.635 20.36C213.723 20.8933 214.576 21.7253 215.195 22.856C215.813 23.9653 216.123 25.3947 216.123 27.144V37H211.131V27.912C211.131 26.5253 210.821 25.5013 210.203 24.84C209.605 24.1787 208.752 23.848 207.643 23.848C206.853 23.848 206.139 24.0187 205.499 24.36C204.88 24.68 204.389 25.1813 204.027 25.864C203.685 26.5467 203.515 27.4213 203.515 28.488V37H198.523V19.784H203.291V24.552L202.395 23.112C203.013 21.96 203.899 21.0747 205.051 20.456C206.203 19.8373 207.515 19.528 208.987 19.528ZM231.208 37V33.64L230.888 32.904V26.888C230.888 25.8213 230.557 24.9893 229.896 24.392C229.256 23.7947 228.264 23.496 226.92 23.496C226.002 23.496 225.096 23.6453 224.2 23.944C223.325 24.2213 222.578 24.6053 221.96 25.096L220.168 21.608C221.106 20.9467 222.237 20.4347 223.56 20.072C224.882 19.7093 226.226 19.528 227.592 19.528C230.216 19.528 232.253 20.1467 233.704 21.384C235.154 22.6213 235.88 24.552 235.88 27.176V37H231.208ZM225.96 37.256C224.616 37.256 223.464 37.032 222.504 36.584C221.544 36.1147 220.808 35.4853 220.296 34.696C219.784 33.9067 219.528 33.0213 219.528 32.04C219.528 31.016 219.773 30.12 220.264 29.352C220.776 28.584 221.576 27.9867 222.664 27.56C223.752 27.112 225.17 26.888 226.92 26.888H231.496V29.8H227.464C226.29 29.8 225.48 29.992 225.032 30.376C224.605 30.76 224.392 31.24 224.392 31.816C224.392 32.456 224.637 32.968 225.128 33.352C225.64 33.7147 226.333 33.896 227.208 33.896C228.04 33.896 228.786 33.704 229.448 33.32C230.109 32.9147 230.589 32.328 230.888 31.56L231.656 33.864C231.293 34.9733 230.632 35.816 229.672 36.392C228.712 36.968 227.474 37.256 225.96 37.256ZM250.862 19.528C252.227 19.528 253.443 19.8053 254.51 20.36C255.598 20.8933 256.451 21.7253 257.07 22.856C257.688 23.9653 257.998 25.3947 257.998 27.144V37H253.006V27.912C253.006 26.5253 252.696 25.5013 252.078 24.84C251.48 24.1787 250.627 23.848 249.518 23.848C248.728 23.848 248.014 24.0187 247.374 24.36C246.755 24.68 246.264 25.1813 245.902 25.864C245.56 26.5467 245.39 27.4213 245.39 28.488V37H240.398V19.784H245.166V24.552L244.27 23.112C244.888 21.96 245.774 21.0747 246.926 20.456C248.078 19.8373 249.39 19.528 250.862 19.528ZM270.968 37.256C269.112 37.256 267.458 36.8827 266.008 36.136C264.557 35.368 263.416 34.312 262.584 32.968C261.773 31.624 261.368 30.0987 261.368 28.392C261.368 26.664 261.773 25.1387 262.584 23.816C263.416 22.472 264.557 21.4267 266.008 20.68C267.458 19.912 269.112 19.528 270.968 19.528C272.781 19.528 274.36 19.912 275.704 20.68C277.048 21.4267 278.04 22.504 278.68 23.912L274.808 25.992C274.36 25.1813 273.794 24.584 273.112 24.2C272.45 23.816 271.725 23.624 270.936 23.624C270.082 23.624 269.314 23.816 268.632 24.2C267.949 24.584 267.405 25.128 267 25.832C266.616 26.536 266.424 27.3893 266.424 28.392C266.424 29.3947 266.616 30.248 267 30.952C267.405 31.656 267.949 32.2 268.632 32.584C269.314 32.968 270.082 33.16 270.936 33.16C271.725 33.16 272.45 32.9787 273.112 32.616C273.794 32.232 274.36 31.624 274.808 30.792L278.68 32.904C278.04 34.2907 277.048 35.368 275.704 36.136C274.36 36.8827 272.781 37.256 270.968 37.256ZM289.879 37.256C287.917 37.256 286.189 36.872 284.695 36.104C283.223 35.336 282.082 34.2907 281.271 32.968C280.461 31.624 280.055 30.0987 280.055 28.392C280.055 26.664 280.45 25.1387 281.239 23.816C282.05 22.472 283.149 21.4267 284.535 20.68C285.922 19.912 287.49 19.528 289.239 19.528C290.925 19.528 292.439 19.8907 293.783 20.616C295.149 21.32 296.226 22.344 297.015 23.688C297.805 25.0107 298.199 26.6 298.199 28.456C298.199 28.648 298.189 28.872 298.167 29.128C298.146 29.3627 298.125 29.5867 298.103 29.8H284.119V26.888H295.479L293.559 27.752C293.559 26.856 293.378 26.0773 293.015 25.416C292.653 24.7547 292.151 24.2427 291.511 23.88C290.871 23.496 290.125 23.304 289.271 23.304C288.418 23.304 287.661 23.496 286.999 23.88C286.359 24.2427 285.858 24.7653 285.495 25.448C285.133 26.1093 284.951 26.8987 284.951 27.816V28.584C284.951 29.5227 285.154 30.3547 285.559 31.08C285.986 31.784 286.573 32.328 287.319 32.712C288.087 33.0747 288.983 33.256 290.007 33.256C290.925 33.256 291.725 33.1173 292.407 32.84C293.111 32.5627 293.751 32.1467 294.327 31.592L296.983 34.472C296.194 35.368 295.202 36.0613 294.007 36.552C292.813 37.0213 291.437 37.256 289.879 37.256Z" fill="white"/>
<defs>
<clipPath id="clip0_36_210">
<rect width="48" height="47" fill="white"/>
</clipPath>
</defs>
</svg>
