<svg width="300" height="47" viewBox="0 0 300 47" fill="none" xmlns="http://www.w3.org/2000/svg">
<g clip-path="url(#clip0_36_210)">
<path d="M26.4104 0L34.8416 0.093551C21.1432 12.91 11.1673 22.4522 8.15215 25.4646C6.58015 26.9473 5.31513 28.7277 4.42978 30.7034C3.58346 32.5519 3.097 34.5461 2.99666 36.5784C0.946362 34.2781 -0.128899 31.2635 0.000153347 28.1775C0.490988 25.3058 2.01445 22.7156 4.28088 20.8993C9.69693 15.7353 17.1603 8.56927 26.4104 0Z" fill="#4680FE"/>
<path d="M39.5689 0L48.0001 0.093551L16.7507 30.1234C15.9566 30.797 15.1377 31.5641 14.294 32.4248C13.8659 32.8364 13.4937 33.2667 13.1214 33.6783C12.7647 33.9922 12.4814 34.3813 12.2915 34.8179C12.1017 35.2545 12.0101 35.7279 12.0233 36.2042C12.0582 36.5737 12.1725 36.9312 12.3583 37.252L13.8101 38.8611C16.2482 41.5553 18.705 44.2309 21.1431 46.9064L13.0284 47L9.80852 43.9502C7.52757 42.1311 6.01775 39.5101 5.58362 36.6158C5.13694 30.8718 10.9811 26.5872 17.3649 20.8993C22.6879 16.2217 30.3374 9.20541 39.5689 0Z" fill="#4680FE"/>
<path d="M19.226 31.4893L14.8149 35.9236L24.9956 47H33.9293L19.226 31.4893Z" fill="#4680FE"/>
<path d="M26.8008 24.5852L21.7012 29.7679L37.4282 46.7755H47.9811L26.8008 24.5852Z" fill="#4680FE"/>
</g>
<path d="M63.296 32.88L63.008 26.896L73.728 15.6H79.488L69.824 26L66.944 29.072L63.296 32.88ZM58.656 38V15.6H63.808V38H58.656ZM73.984 38L66.016 28.24L69.408 24.56L80.032 38H73.984ZM81.679 38V20.784H86.447V25.648L85.775 24.24C86.287 23.024 87.1083 22.1067 88.239 21.488C89.3697 20.848 90.7457 20.528 92.367 20.528V25.136C92.1537 25.1147 91.9617 25.104 91.791 25.104C91.6203 25.0827 91.439 25.072 91.247 25.072C89.8817 25.072 88.7723 25.4667 87.919 26.256C87.087 27.024 86.671 28.2293 86.671 29.872V38H81.679ZM103.402 38.256C101.568 38.256 99.9356 37.872 98.5063 37.104C97.0983 36.336 95.9783 35.2907 95.1463 33.968C94.3356 32.624 93.9303 31.0987 93.9303 29.392C93.9303 27.664 94.3356 26.1387 95.1463 24.816C95.9783 23.472 97.0983 22.4267 98.5063 21.68C99.9356 20.912 101.568 20.528 103.402 20.528C105.216 20.528 106.837 20.912 108.266 21.68C109.696 22.4267 110.816 23.4613 111.626 24.784C112.437 26.1067 112.842 27.6427 112.842 29.392C112.842 31.0987 112.437 32.624 111.626 33.968C110.816 35.2907 109.696 36.336 108.266 37.104C106.837 37.872 105.216 38.256 103.402 38.256ZM103.402 34.16C104.234 34.16 104.981 33.968 105.642 33.584C106.304 33.2 106.826 32.656 107.21 31.952C107.594 31.2267 107.786 30.3733 107.786 29.392C107.786 28.3893 107.594 27.536 107.21 26.832C106.826 26.128 106.304 25.584 105.642 25.2C104.981 24.816 104.234 24.624 103.402 24.624C102.57 24.624 101.824 24.816 101.162 25.2C100.501 25.584 99.9676 26.128 99.5623 26.832C99.1783 27.536 98.9863 28.3893 98.9863 29.392C98.9863 30.3733 99.1783 31.2267 99.5623 31.952C99.9676 32.656 100.501 33.2 101.162 33.584C101.824 33.968 102.57 34.16 103.402 34.16ZM126.643 20.528C128.008 20.528 129.224 20.8053 130.291 21.36C131.379 21.8933 132.232 22.7253 132.851 23.856C133.47 24.9653 133.779 26.3947 133.779 28.144V38H128.787V28.912C128.787 27.5253 128.478 26.5013 127.859 25.84C127.262 25.1787 126.408 24.848 125.299 24.848C124.51 24.848 123.795 25.0187 123.155 25.36C122.536 25.68 122.046 26.1813 121.683 26.864C121.342 27.5467 121.171 28.4213 121.171 29.488V38H116.179V20.784H120.947V25.552L120.051 24.112C120.67 22.96 121.555 22.0747 122.707 21.456C123.859 20.8373 125.171 20.528 126.643 20.528ZM146.621 38.256C144.786 38.256 143.154 37.872 141.725 37.104C140.317 36.336 139.197 35.2907 138.365 33.968C137.554 32.624 137.149 31.0987 137.149 29.392C137.149 27.664 137.554 26.1387 138.365 24.816C139.197 23.472 140.317 22.4267 141.725 21.68C143.154 20.912 144.786 20.528 146.621 20.528C148.434 20.528 150.056 20.912 151.485 21.68C152.914 22.4267 154.034 23.4613 154.845 24.784C155.656 26.1067 156.061 27.6427 156.061 29.392C156.061 31.0987 155.656 32.624 154.845 33.968C154.034 35.2907 152.914 36.336 151.485 37.104C150.056 37.872 148.434 38.256 146.621 38.256ZM146.621 34.16C147.453 34.16 148.2 33.968 148.861 33.584C149.522 33.2 150.045 32.656 150.429 31.952C150.813 31.2267 151.005 30.3733 151.005 29.392C151.005 28.3893 150.813 27.536 150.429 26.832C150.045 26.128 149.522 25.584 148.861 25.2C148.2 24.816 147.453 24.624 146.621 24.624C145.789 24.624 145.042 24.816 144.381 25.2C143.72 25.584 143.186 26.128 142.781 26.832C142.397 27.536 142.205 28.3893 142.205 29.392C142.205 30.3733 142.397 31.2267 142.781 31.952C143.186 32.656 143.72 33.2 144.381 33.584C145.042 33.968 145.789 34.16 146.621 34.16ZM173.612 25.68H184.364V29.84H173.612V25.68ZM173.996 38H168.812V15.6H185.74V19.76H173.996V38ZM188.898 38V20.784H193.89V38H188.898ZM191.394 18.384C190.476 18.384 189.73 18.1173 189.154 17.584C188.578 17.0507 188.29 16.3893 188.29 15.6C188.29 14.8107 188.578 14.1493 189.154 13.616C189.73 13.0827 190.476 12.816 191.394 12.816C192.311 12.816 193.058 13.072 193.634 13.584C194.21 14.0747 194.498 14.7147 194.498 15.504C194.498 16.336 194.21 17.0293 193.634 17.584C193.079 18.1173 192.332 18.384 191.394 18.384ZM208.987 20.528C210.352 20.528 211.568 20.8053 212.635 21.36C213.723 21.8933 214.576 22.7253 215.195 23.856C215.813 24.9653 216.123 26.3947 216.123 28.144V38H211.131V28.912C211.131 27.5253 210.821 26.5013 210.203 25.84C209.605 25.1787 208.752 24.848 207.643 24.848C206.853 24.848 206.139 25.0187 205.499 25.36C204.88 25.68 204.389 26.1813 204.027 26.864C203.685 27.5467 203.515 28.4213 203.515 29.488V38H198.523V20.784H203.291V25.552L202.395 24.112C203.013 22.96 203.899 22.0747 205.051 21.456C206.203 20.8373 207.515 20.528 208.987 20.528ZM231.208 38V34.64L230.888 33.904V27.888C230.888 26.8213 230.557 25.9893 229.896 25.392C229.256 24.7947 228.264 24.496 226.92 24.496C226.002 24.496 225.096 24.6453 224.2 24.944C223.325 25.2213 222.578 25.6053 221.96 26.096L220.168 22.608C221.106 21.9467 222.237 21.4347 223.56 21.072C224.882 20.7093 226.226 20.528 227.592 20.528C230.216 20.528 232.253 21.1467 233.704 22.384C235.154 23.6213 235.88 25.552 235.88 28.176V38H231.208ZM225.96 38.256C224.616 38.256 223.464 38.032 222.504 37.584C221.544 37.1147 220.808 36.4853 220.296 35.696C219.784 34.9067 219.528 34.0213 219.528 33.04C219.528 32.016 219.773 31.12 220.264 30.352C220.776 29.584 221.576 28.9867 222.664 28.56C223.752 28.112 225.17 27.888 226.92 27.888H231.496V30.8H227.464C226.29 30.8 225.48 30.992 225.032 31.376C224.605 31.76 224.392 32.24 224.392 32.816C224.392 33.456 224.637 33.968 225.128 34.352C225.64 34.7147 226.333 34.896 227.208 34.896C228.04 34.896 228.786 34.704 229.448 34.32C230.109 33.9147 230.589 33.328 230.888 32.56L231.656 34.864C231.293 35.9733 230.632 36.816 229.672 37.392C228.712 37.968 227.474 38.256 225.96 38.256ZM250.862 20.528C252.227 20.528 253.443 20.8053 254.51 21.36C255.598 21.8933 256.451 22.7253 257.07 23.856C257.688 24.9653 257.998 26.3947 257.998 28.144V38H253.006V28.912C253.006 27.5253 252.696 26.5013 252.078 25.84C251.48 25.1787 250.627 24.848 249.518 24.848C248.728 24.848 248.014 25.0187 247.374 25.36C246.755 25.68 246.264 26.1813 245.902 26.864C245.56 27.5467 245.39 28.4213 245.39 29.488V38H240.398V20.784H245.166V25.552L244.27 24.112C244.888 22.96 245.774 22.0747 246.926 21.456C248.078 20.8373 249.39 20.528 250.862 20.528ZM270.968 38.256C269.112 38.256 267.458 37.8827 266.008 37.136C264.557 36.368 263.416 35.312 262.584 33.968C261.773 32.624 261.368 31.0987 261.368 29.392C261.368 27.664 261.773 26.1387 262.584 24.816C263.416 23.472 264.557 22.4267 266.008 21.68C267.458 20.912 269.112 20.528 270.968 20.528C272.781 20.528 274.36 20.912 275.704 21.68C277.048 22.4267 278.04 23.504 278.68 24.912L274.808 26.992C274.36 26.1813 273.794 25.584 273.112 25.2C272.45 24.816 271.725 24.624 270.936 24.624C270.082 24.624 269.314 24.816 268.632 25.2C267.949 25.584 267.405 26.128 267 26.832C266.616 27.536 266.424 28.3893 266.424 29.392C266.424 30.3947 266.616 31.248 267 31.952C267.405 32.656 267.949 33.2 268.632 33.584C269.314 33.968 270.082 34.16 270.936 34.16C271.725 34.16 272.45 33.9787 273.112 33.616C273.794 33.232 274.36 32.624 274.808 31.792L278.68 33.904C278.04 35.2907 277.048 36.368 275.704 37.136C274.36 37.8827 272.781 38.256 270.968 38.256ZM289.879 38.256C287.917 38.256 286.189 37.872 284.695 37.104C283.223 36.336 282.082 35.2907 281.271 33.968C280.461 32.624 280.055 31.0987 280.055 29.392C280.055 27.664 280.45 26.1387 281.239 24.816C282.05 23.472 283.149 22.4267 284.535 21.68C285.922 20.912 287.49 20.528 289.239 20.528C290.925 20.528 292.439 20.8907 293.783 21.616C295.149 22.32 296.226 23.344 297.015 24.688C297.805 26.0107 298.199 27.6 298.199 29.456C298.199 29.648 298.189 29.872 298.167 30.128C298.146 30.3627 298.125 30.5867 298.103 30.8H284.119V27.888H295.479L293.559 28.752C293.559 27.856 293.378 27.0773 293.015 26.416C292.653 25.7547 292.151 25.2427 291.511 24.88C290.871 24.496 290.125 24.304 289.271 24.304C288.418 24.304 287.661 24.496 286.999 24.88C286.359 25.2427 285.858 25.7653 285.495 26.448C285.133 27.1093 284.951 27.8987 284.951 28.816V29.584C284.951 30.5227 285.154 31.3547 285.559 32.08C285.986 32.784 286.573 33.328 287.319 33.712C288.087 34.0747 288.983 34.256 290.007 34.256C290.925 34.256 291.725 34.1173 292.407 33.84C293.111 33.5627 293.751 33.1467 294.327 32.592L296.983 35.472C296.194 36.368 295.202 37.0613 294.007 37.552C292.813 38.0213 291.437 38.256 289.879 38.256Z" fill="white"/>
<defs>
<clipPath id="clip0_36_210">
<rect width="48" height="47" fill="white"/>
</clipPath>
</defs>
</svg>
