<svg width="142" height="48" viewBox="0 0 142 48" fill="none" xmlns="http://www.w3.org/2000/svg">
<g clip-path="url(#clip0_45_214)">
<path d="M26.4104 0L34.8416 0.093551C21.1432 12.91 11.1673 22.4522 8.15215 25.4646C6.58015 26.9473 5.31513 28.7277 4.42978 30.7034C3.58346 32.5519 3.097 34.5461 2.99666 36.5784C0.946362 34.2781 -0.128899 31.2635 0.000153347 28.1775C0.490988 25.3058 2.01445 22.7156 4.28088 20.8993C9.69693 15.7353 17.1603 8.56927 26.4104 0Z" fill="#4680FE"/>
<path d="M39.5689 0L48.0001 0.093551L16.7507 30.1234C15.9566 30.797 15.1377 31.5641 14.294 32.4248C13.8659 32.8364 13.4937 33.2667 13.1214 33.6783C12.7647 33.9922 12.4814 34.3813 12.2915 34.8179C12.1017 35.2545 12.0101 35.7279 12.0233 36.2042C12.0582 36.5737 12.1725 36.9312 12.3583 37.252L13.8101 38.8611C16.2482 41.5553 18.705 44.2309 21.1431 46.9064L13.0284 47L9.80852 43.9502C7.52757 42.1311 6.01775 39.5101 5.58362 36.6158C5.13694 30.8718 10.9811 26.5872 17.3649 20.8993C22.6879 16.2217 30.3374 9.20541 39.5689 0Z" fill="#4680FE"/>
<path d="M19.226 31.4893L14.8149 35.9236L24.9956 47H33.9293L19.226 31.4893Z" fill="#4680FE"/>
<path d="M26.8008 24.5852L21.7012 29.7679L37.4282 46.7755H47.9811L26.8008 24.5852Z" fill="#4680FE"/>
</g>
<path d="M62.788 17.64L62.599 13.713L69.634 6.3H73.414L67.072 13.125L65.182 15.141L62.788 17.64ZM59.743 21V6.3H63.124V21H59.743ZM69.802 21L64.573 14.595L66.799 12.18L73.771 21H69.802ZM74.8518 21V9.702H77.9808V12.894L77.5398 11.97C77.8758 11.172 78.4148 10.57 79.1568 10.164C79.8988 9.744 80.8018 9.534 81.8658 9.534V12.558C81.7258 12.544 81.5998 12.537 81.4878 12.537C81.3758 12.523 81.2568 12.516 81.1308 12.516C80.2348 12.516 79.5068 12.775 78.9468 13.293C78.4008 13.797 78.1278 14.588 78.1278 15.666V21H74.8518ZM89.1077 21.168C87.9037 21.168 86.8327 20.916 85.8947 20.412C84.9707 19.908 84.2357 19.222 83.6897 18.354C83.1577 17.472 82.8917 16.471 82.8917 15.351C82.8917 14.217 83.1577 13.216 83.6897 12.348C84.2357 11.466 84.9707 10.78 85.8947 10.29C86.8327 9.786 87.9037 9.534 89.1077 9.534C90.2977 9.534 91.3617 9.786 92.2997 10.29C93.2377 10.78 93.9727 11.459 94.5047 12.327C95.0367 13.195 95.3027 14.203 95.3027 15.351C95.3027 16.471 95.0367 17.472 94.5047 18.354C93.9727 19.222 93.2377 19.908 92.2997 20.412C91.3617 20.916 90.2977 21.168 89.1077 21.168ZM89.1077 18.48C89.6537 18.48 90.1437 18.354 90.5777 18.102C91.0117 17.85 91.3547 17.493 91.6067 17.031C91.8587 16.555 91.9847 15.995 91.9847 15.351C91.9847 14.693 91.8587 14.133 91.6067 13.671C91.3547 13.209 91.0117 12.852 90.5777 12.6C90.1437 12.348 89.6537 12.222 89.1077 12.222C88.5617 12.222 88.0717 12.348 87.6377 12.6C87.2037 12.852 86.8537 13.209 86.5877 13.671C86.3357 14.133 86.2097 14.693 86.2097 15.351C86.2097 15.995 86.3357 16.555 86.5877 17.031C86.8537 17.493 87.2037 17.85 87.6377 18.102C88.0717 18.354 88.5617 18.48 89.1077 18.48ZM104.359 9.534C105.255 9.534 106.053 9.716 106.753 10.08C107.467 10.43 108.027 10.976 108.433 11.718C108.839 12.446 109.042 13.384 109.042 14.532V21H105.766V15.036C105.766 14.126 105.563 13.454 105.157 13.02C104.765 12.586 104.205 12.369 103.477 12.369C102.959 12.369 102.49 12.481 102.07 12.705C101.664 12.915 101.342 13.244 101.104 13.692C100.88 14.14 100.768 14.714 100.768 15.414V21H97.4925V9.702H100.621V12.831L100.033 11.886C100.439 11.13 101.02 10.549 101.776 10.143C102.532 9.737 103.393 9.534 104.359 9.534ZM117.47 21.168C116.266 21.168 115.195 20.916 114.257 20.412C113.333 19.908 112.598 19.222 112.052 18.354C111.52 17.472 111.254 16.471 111.254 15.351C111.254 14.217 111.52 13.216 112.052 12.348C112.598 11.466 113.333 10.78 114.257 10.29C115.195 9.786 116.266 9.534 117.47 9.534C118.66 9.534 119.724 9.786 120.662 10.29C121.6 10.78 122.335 11.459 122.867 12.327C123.399 13.195 123.665 14.203 123.665 15.351C123.665 16.471 123.399 17.472 122.867 18.354C122.335 19.222 121.6 19.908 120.662 20.412C119.724 20.916 118.66 21.168 117.47 21.168ZM117.47 18.48C118.016 18.48 118.506 18.354 118.94 18.102C119.374 17.85 119.717 17.493 119.969 17.031C120.221 16.555 120.347 15.995 120.347 15.351C120.347 14.693 120.221 14.133 119.969 13.671C119.717 13.209 119.374 12.852 118.94 12.6C118.506 12.348 118.016 12.222 117.47 12.222C116.924 12.222 116.434 12.348 116 12.6C115.566 12.852 115.216 13.209 114.95 13.671C114.698 14.133 114.572 14.693 114.572 15.351C114.572 15.995 114.698 16.555 114.95 17.031C115.216 17.493 115.566 17.85 116 18.102C116.434 18.354 116.924 18.48 117.47 18.48Z" fill="white"/>
<path d="M62.66 35.3H69.38V37.9H62.66V35.3ZM62.9 43H59.66V29H70.24V31.6H62.9V43ZM72.2134 43V32.24H75.3334V43H72.2134ZM73.7734 30.74C73.2001 30.74 72.7334 30.5733 72.3734 30.24C72.0134 29.9067 71.8334 29.4933 71.8334 29C71.8334 28.5067 72.0134 28.0933 72.3734 27.76C72.7334 27.4267 73.2001 27.26 73.7734 27.26C74.3468 27.26 74.8134 27.42 75.1734 27.74C75.5334 28.0467 75.7134 28.4467 75.7134 28.94C75.7134 29.46 75.5334 29.8933 75.1734 30.24C74.8268 30.5733 74.3601 30.74 73.7734 30.74ZM84.7691 32.08C85.6224 32.08 86.3824 32.2533 87.0491 32.6C87.7291 32.9333 88.2624 33.4533 88.6491 34.16C89.0357 34.8533 89.2291 35.7467 89.2291 36.84V43H86.1091V37.32C86.1091 36.4533 85.9157 35.8133 85.5291 35.4C85.1557 34.9867 84.6224 34.78 83.9291 34.78C83.4357 34.78 82.9891 34.8867 82.5891 35.1C82.2024 35.3 81.8957 35.6133 81.6691 36.04C81.4557 36.4667 81.3491 37.0133 81.3491 37.68V43H78.2291V32.24H81.2091V35.22L80.6491 34.32C81.0357 33.6 81.5891 33.0467 82.3091 32.66C83.0291 32.2733 83.8491 32.08 84.7691 32.08ZM98.6572 43V40.9L98.4572 40.44V36.68C98.4572 36.0133 98.2505 35.4933 97.8372 35.12C97.4372 34.7467 96.8172 34.56 95.9772 34.56C95.4039 34.56 94.8372 34.6533 94.2772 34.84C93.7305 35.0133 93.2639 35.2533 92.8772 35.56L91.7572 33.38C92.3439 32.9667 93.0505 32.6467 93.8772 32.42C94.7039 32.1933 95.5439 32.08 96.3972 32.08C98.0372 32.08 99.3105 32.4667 100.217 33.24C101.124 34.0133 101.577 35.22 101.577 36.86V43H98.6572ZM95.3772 43.16C94.5372 43.16 93.8172 43.02 93.2172 42.74C92.6172 42.4467 92.1572 42.0533 91.8372 41.56C91.5172 41.0667 91.3572 40.5133 91.3572 39.9C91.3572 39.26 91.5105 38.7 91.8172 38.22C92.1372 37.74 92.6372 37.3667 93.3172 37.1C93.9972 36.82 94.8839 36.68 95.9772 36.68H98.8372V38.5H96.3172C95.5839 38.5 95.0772 38.62 94.7972 38.86C94.5305 39.1 94.3972 39.4 94.3972 39.76C94.3972 40.16 94.5505 40.48 94.8572 40.72C95.1772 40.9467 95.6105 41.06 96.1572 41.06C96.6772 41.06 97.1439 40.94 97.5572 40.7C97.9705 40.4467 98.2705 40.08 98.4572 39.6L98.9372 41.04C98.7105 41.7333 98.2972 42.26 97.6972 42.62C97.0972 42.98 96.3239 43.16 95.3772 43.16ZM110.941 32.08C111.794 32.08 112.554 32.2533 113.221 32.6C113.901 32.9333 114.434 33.4533 114.821 34.16C115.208 34.8533 115.401 35.7467 115.401 36.84V43H112.281V37.32C112.281 36.4533 112.088 35.8133 111.701 35.4C111.328 34.9867 110.794 34.78 110.101 34.78C109.608 34.78 109.161 34.8867 108.761 35.1C108.374 35.3 108.068 35.6133 107.841 36.04C107.628 36.4667 107.521 37.0133 107.521 37.68V43H104.401V32.24H107.381V35.22L106.821 34.32C107.208 33.6 107.761 33.0467 108.481 32.66C109.201 32.2733 110.021 32.08 110.941 32.08ZM123.507 43.16C122.347 43.16 121.314 42.9267 120.407 42.46C119.501 41.98 118.787 41.32 118.267 40.48C117.761 39.64 117.507 38.6867 117.507 37.62C117.507 36.54 117.761 35.5867 118.267 34.76C118.787 33.92 119.501 33.2667 120.407 32.8C121.314 32.32 122.347 32.08 123.507 32.08C124.641 32.08 125.627 32.32 126.467 32.8C127.307 33.2667 127.927 33.94 128.327 34.82L125.907 36.12C125.627 35.6133 125.274 35.24 124.847 35C124.434 34.76 123.981 34.64 123.487 34.64C122.954 34.64 122.474 34.76 122.047 35C121.621 35.24 121.281 35.58 121.027 36.02C120.787 36.46 120.667 36.9933 120.667 37.62C120.667 38.2467 120.787 38.78 121.027 39.22C121.281 39.66 121.621 40 122.047 40.24C122.474 40.48 122.954 40.6 123.487 40.6C123.981 40.6 124.434 40.4867 124.847 40.26C125.274 40.02 125.627 39.64 125.907 39.12L128.327 40.44C127.927 41.3067 127.307 41.98 126.467 42.46C125.627 42.9267 124.641 43.16 123.507 43.16ZM135.327 43.16C134.1 43.16 133.02 42.92 132.087 42.44C131.167 41.96 130.454 41.3067 129.947 40.48C129.44 39.64 129.187 38.6867 129.187 37.62C129.187 36.54 129.434 35.5867 129.927 34.76C130.434 33.92 131.12 33.2667 131.987 32.8C132.854 32.32 133.834 32.08 134.927 32.08C135.98 32.08 136.927 32.3067 137.767 32.76C138.62 33.2 139.294 33.84 139.787 34.68C140.28 35.5067 140.527 36.5 140.527 37.66C140.527 37.78 140.52 37.92 140.507 38.08C140.494 38.2267 140.48 38.3667 140.467 38.5H131.727V36.68H138.827L137.627 37.22C137.627 36.66 137.514 36.1733 137.287 35.76C137.06 35.3467 136.747 35.0267 136.347 34.8C135.947 34.56 135.48 34.44 134.947 34.44C134.414 34.44 133.94 34.56 133.527 34.8C133.127 35.0267 132.814 35.3533 132.587 35.78C132.36 36.1933 132.247 36.6867 132.247 37.26V37.74C132.247 38.3267 132.374 38.8467 132.627 39.3C132.894 39.74 133.26 40.08 133.727 40.32C134.207 40.5467 134.767 40.66 135.407 40.66C135.98 40.66 136.48 40.5733 136.907 40.4C137.347 40.2267 137.747 39.9667 138.107 39.62L139.767 41.42C139.274 41.98 138.654 42.4133 137.907 42.72C137.16 43.0133 136.3 43.16 135.327 43.16Z" fill="white"/>
<defs>
<clipPath id="clip0_45_214">
<rect width="48" height="47" fill="white"/>
</clipPath>
</defs>
</svg>
